# xmcd
#
# Track frame offsets:
#	150
#	12646
#	26421
#	37748
#	48035
#	60361
#	71881
#	82159
#	94985
#	103479
#	123055
#	144544
#	153137
#	166458
#	180825
#	198593
#	208317
#	221626
#	233224
#
# Disc length: 3299 seconds
#
# Revision: 1
# Processed by: cddbd v1.5.1PL0 Copyright (c) Steve Scherf et al.
# Submitted via: audiograbber 1.83.01
#
DISCID=090ce113
DTITLE=Various Artist - 1. velky trampsky zpevnik  Che - Je
DYEAR=2005
DGENRE=Country
TTITLE0=Chodim po Brodwayi
TTITLE1=Ja mam doma kone
TTITLE2=Ja prijdu za tebou
TTITLE3=Ja vim
TTITLE4=Jackova pisen
TTITLE5=Japonecka
TTITLE6=Jarni kuryr
TTITLE7=Jaro
TTITLE8=Jdou stada sobu
TTITLE9=Je na zapad cesta dlouha
TTITLE10=Jedina noc
TTITLE11=Jednou otec rekl mi
TTITLE12=Jedu noci
TTITLE13=Jen ty jedina
TTITLE14=Jen ty, ma Sazavo
TTITLE15=Jasse James
TTITLE16=Jeste spi chata nad rekou
TTITLE17=Jezdili jsme ve dvojici
TTITLE18=Jezero drima
EXTD=
EXTT0=
EXTT1=
EXTT2=
EXTT3=
EXTT4=
EXTT5=
EXTT6=
EXTT7=
EXTT8=
EXTT9=
EXTT10=
EXTT11=
EXTT12=
EXTT13=
EXTT14=
EXTT15=
EXTT16=
EXTT17=
EXTT18=
PLAYORDER=
